<svg width="24" height="24" viewBox="0 0 24 24" fill="none" xmlns="http://www.w3.org/2000/svg">
<path d="M5 18.7884V17.2887H6.80775V9.82693C6.80775 8.4821 7.22283 7.29301 8.053 6.25968C8.883 5.22635 9.94867 4.56543 11.25 4.27693V3.65393C11.25 3.30676 11.3714 3.0116 11.6143 2.76843C11.8571 2.52543 12.1519 2.40393 12.4988 2.40393C12.8458 2.40393 13.141 2.52543 13.3845 2.76843C13.6282 3.0116 13.75 3.30676 13.75 3.65393V4.27693C15.0513 4.56543 16.117 5.22635 16.947 6.25968C17.7772 7.29301 18.1923 8.4821 18.1923 9.82693V17.2887H20V18.7884H5ZM12.4983 21.5962C12.0008 21.5962 11.5754 21.4192 11.2223 21.0652C10.8689 20.7112 10.6923 20.2856 10.6923 19.7884H14.3077C14.3077 20.2873 14.1306 20.7133 13.7762 21.0664C13.4219 21.4196 12.9959 21.5962 12.4983 21.5962ZM8.30775 17.2887H16.6923V9.82693C16.6923 8.66926 16.283 7.68118 15.4645 6.86268C14.6458 6.04401 13.6577 5.63468 12.5 5.63468C11.3423 5.63468 10.3542 6.04401 9.5355 6.86268C8.717 7.68118 8.30775 8.66926 8.30775 9.82693V17.2887Z" fill="#999999"/>
</svg>
