<svg width="20" height="13" viewBox="0 0 20 13" fill="none" xmlns="http://www.w3.org/2000/svg">
<path fill-rule="evenodd" clip-rule="evenodd" d="M19.7723 1.68236C19.7723 1.04932 19.2947 0.536133 18.7056 0.536133H17.6389C17.0498 0.536133 16.5723 1.04932 16.5723 1.68236V11.6163C16.5723 12.2494 17.0498 12.7625 17.6389 12.7625H18.7056C19.2947 12.7625 19.7723 12.2494 19.7723 11.6163V1.68236ZM12.3382 2.98141H13.4048C13.9939 2.98141 14.4715 3.50691 14.4715 4.15515V11.5888C14.4715 12.237 13.9939 12.7625 13.4048 12.7625H12.3382C11.749 12.7625 11.2715 12.237 11.2715 11.5888V4.15515C11.2715 3.50691 11.749 2.98141 12.3382 2.98141ZM8.00638 5.63046H6.93971C6.35061 5.63046 5.87305 6.16265 5.87305 6.81914V11.5739C5.87305 12.2303 6.35061 12.7625 6.93971 12.7625H8.00638C8.59548 12.7625 9.07305 12.2303 9.07305 11.5739V6.81914C9.07305 6.16265 8.59548 5.63046 8.00638 5.63046ZM2.7056 8.07576H1.63893C1.04983 8.07576 0.572266 8.60034 0.572266 9.24745V11.5909C0.572266 12.238 1.04983 12.7625 1.63893 12.7625H2.7056C3.2947 12.7625 3.77227 12.238 3.77227 11.5909V9.24745C3.77227 8.60034 3.2947 8.07576 2.7056 8.07576Z" fill="#010101"/>
</svg>
