<svg width="18" height="13" viewBox="0 0 18 13" fill="none" xmlns="http://www.w3.org/2000/svg">
<path fill-rule="evenodd" clip-rule="evenodd" d="M8.84279 3.10404C11.3299 3.10414 13.7219 4.02623 15.5244 5.67971C15.6601 5.80736 15.8771 5.80575 16.0108 5.6761L17.3083 4.41263C17.376 4.34687 17.4137 4.25779 17.4131 4.16511C17.4126 4.07243 17.3738 3.98379 17.3053 3.91879C12.5743 -0.455922 5.11055 -0.455922 0.37954 3.91879C0.311008 3.98374 0.272124 4.07235 0.271492 4.16504C0.27086 4.25772 0.308533 4.34682 0.376173 4.41263L1.67404 5.6761C1.80764 5.80595 2.02476 5.80756 2.16041 5.67971C3.96315 4.02612 6.35543 3.10403 8.84279 3.10404ZM8.83943 7.32431C10.1968 7.32423 11.5056 7.83597 12.5118 8.7601C12.6478 8.89125 12.8622 8.88841 12.9949 8.75369L14.2821 7.43438C14.3499 7.36518 14.3875 7.2713 14.3866 7.17375C14.3856 7.0762 14.3461 6.98312 14.2769 6.91533C11.2131 4.02448 6.46836 4.02448 3.40453 6.91533C3.33532 6.98312 3.29584 7.07625 3.29493 7.17383C3.29402 7.27141 3.33177 7.36528 3.3997 7.43438L4.68661 8.75369C4.81927 8.88841 5.03363 8.89125 5.16971 8.7601C6.17517 7.83658 7.48301 7.32488 8.83943 7.32431ZM11.3639 10.1179C11.3658 10.2232 11.3287 10.3248 11.2614 10.3986L9.08475 12.8533C9.02095 12.9255 8.93396 12.9661 8.84319 12.9661C8.75242 12.9661 8.66542 12.9255 8.60162 12.8533L6.42459 10.3986C6.35734 10.3247 6.32034 10.2231 6.32233 10.1178C6.32433 10.0124 6.36514 9.91267 6.43512 9.84205C7.82522 8.52816 9.86115 8.52816 11.2512 9.84205C11.3212 9.91272 11.3619 10.0125 11.3639 10.1179Z" fill="#010101"/>
</svg>
