<svg width="15" height="17" viewBox="0 0 15 17" fill="none" xmlns="http://www.w3.org/2000/svg">
<path d="M1.92345 16.9167C1.50248 16.9167 1.14616 16.7708 0.854492 16.4792C0.562826 16.1875 0.416992 15.8312 0.416992 15.4102V4.25647C0.416992 3.8355 0.562826 3.47918 0.854492 3.18751C1.14616 2.89585 1.50248 2.75001 1.92345 2.75001H3.0772V0.987305H4.35928V2.75001H10.6735V0.987305H11.9235V2.75001H13.0772C13.4982 2.75001 13.8545 2.89585 14.1462 3.18751C14.4378 3.47918 14.5837 3.8355 14.5837 4.25647V15.4102C14.5837 15.8312 14.4378 16.1875 14.1462 16.4792C13.8545 16.7708 13.4982 16.9167 13.0772 16.9167H1.92345ZM1.92345 15.6667H13.0772C13.1414 15.6667 13.2001 15.6399 13.2535 15.5865C13.3069 15.5331 13.3337 15.4744 13.3337 15.4102V7.5898H1.66699V15.4102C1.66699 15.4744 1.69373 15.5331 1.7472 15.5865C1.80053 15.6399 1.85928 15.6667 1.92345 15.6667ZM1.66699 6.3398H13.3337V4.25647C13.3337 4.1923 13.3069 4.13355 13.2535 4.08022C13.2001 4.02675 13.1414 4.00001 13.0772 4.00001H1.92345C1.85928 4.00001 1.80053 4.02675 1.7472 4.08022C1.69373 4.13355 1.66699 4.1923 1.66699 4.25647V6.3398ZM7.50033 10.7308C7.2963 10.7308 7.12241 10.659 6.97866 10.5152C6.83505 10.3716 6.76324 10.1977 6.76324 9.99356C6.76324 9.78953 6.83505 9.61564 6.97866 9.47189C7.12241 9.32828 7.2963 9.25647 7.50033 9.25647C7.70435 9.25647 7.87824 9.32828 8.02199 9.47189C8.1656 9.61564 8.23741 9.78953 8.23741 9.99356C8.23741 10.1977 8.1656 10.3716 8.02199 10.5152C7.87824 10.659 7.70435 10.7308 7.50033 10.7308ZM4.16699 10.7308C3.96296 10.7308 3.78908 10.659 3.64533 10.5152C3.50171 10.3716 3.42991 10.1977 3.42991 9.99356C3.42991 9.78953 3.50171 9.61564 3.64533 9.47189C3.78908 9.32828 3.96296 9.25647 4.16699 9.25647C4.37102 9.25647 4.54491 9.32828 4.68866 9.47189C4.83227 9.61564 4.90408 9.78953 4.90408 9.99356C4.90408 10.1977 4.83227 10.3716 4.68866 10.5152C4.54491 10.659 4.37102 10.7308 4.16699 10.7308ZM10.8337 10.7308C10.6296 10.7308 10.4557 10.659 10.312 10.5152C10.1684 10.3716 10.0966 10.1977 10.0966 9.99356C10.0966 9.78953 10.1684 9.61564 10.312 9.47189C10.4557 9.32828 10.6296 9.25647 10.8337 9.25647C11.0377 9.25647 11.2116 9.32828 11.3553 9.47189C11.4989 9.61564 11.5707 9.78953 11.5707 9.99356C11.5707 10.1977 11.4989 10.3716 11.3553 10.5152C11.2116 10.659 11.0377 10.7308 10.8337 10.7308ZM7.50033 14C7.2963 14 7.12241 13.9281 6.97866 13.7844C6.83505 13.6408 6.76324 13.467 6.76324 13.2629C6.76324 13.0588 6.83505 12.8849 6.97866 12.7413C7.12241 12.5975 7.2963 12.5256 7.50033 12.5256C7.70435 12.5256 7.87824 12.5975 8.02199 12.7413C8.1656 12.8849 8.23741 13.0588 8.23741 13.2629C8.23741 13.467 8.1656 13.6408 8.02199 13.7844C7.87824 13.9281 7.70435 14 7.50033 14ZM4.16699 14C3.96296 14 3.78908 13.9281 3.64533 13.7844C3.50171 13.6408 3.42991 13.467 3.42991 13.2629C3.42991 13.0588 3.50171 12.8849 3.64533 12.7413C3.78908 12.5975 3.96296 12.5256 4.16699 12.5256C4.37102 12.5256 4.54491 12.5975 4.68866 12.7413C4.83227 12.8849 4.90408 13.0588 4.90408 13.2629C4.90408 13.467 4.83227 13.6408 4.68866 13.7844C4.54491 13.9281 4.37102 14 4.16699 14ZM10.8337 14C10.6296 14 10.4557 13.9281 10.312 13.7844C10.1684 13.6408 10.0966 13.467 10.0966 13.2629C10.0966 13.0588 10.1684 12.8849 10.312 12.7413C10.4557 12.5975 10.6296 12.5256 10.8337 12.5256C11.0377 12.5256 11.2116 12.5975 11.3553 12.7413C11.4989 12.8849 11.5707 13.0588 11.5707 13.2629C11.5707 13.467 11.4989 13.6408 11.3553 13.7844C11.2116 13.9281 11.0377 14 10.8337 14Z" fill="#999999"/>
</svg>
